<svg width="32" height="32" viewBox="0 0 32 32" fill="none" xmlns="http://www.w3.org/2000/svg">
  <circle cx="16" cy="16" r="16" fill="#10B981"/>
  <path d="M12 12h8M12 20h8M16 8v4M16 20v4" stroke="white" stroke-width="2" stroke-linecap="round"/>
  <path d="M20 12c0-2.21-1.79-4-4-4s-4 1.79-4 4c0 1.5.83 2.8 2.06 3.5L16 16l1.94-.5C19.17 14.8 20 13.5 20 12z" fill="white"/>
  <path d="M12 20c0 2.21 1.79 4 4 4s4-1.79 4-4c0-1.5-.83-2.8-2.06-3.5L16 16l-1.94.5C12.83 17.2 12 18.5 12 20z" fill="white"/>
</svg>